<?xml version="1.0" encoding="utf-8"?>
<!-- Generator: Adobe Illustrator 18.0.0, SVG Export Plug-In . SVG Version: 6.00 Build 0)  -->
<!DOCTYPE svg PUBLIC "-//W3C//DTD SVG 1.1//EN" "http://www.w3.org/Graphics/SVG/1.1/DTD/svg11.dtd">
<svg version="1.1" id="Layer_1" xmlns="http://www.w3.org/2000/svg" xmlns:xlink="http://www.w3.org/1999/xlink" x="0px" y="0px"
	 viewBox="0 0 283 327.7" enable-background="new 0 0 283 327.7" xml:space="preserve">
<polygon fill="none" stroke="#1F87E7" stroke-width="7" stroke-miterlimit="10" points="15.5,90.9 142,17.9 268.5,90.9 268.5,236.8 
	142,309.8 15.5,236.8 "/>
<polygon fill="none" stroke="#DDDDDD" stroke-miterlimit="10" points="0.5,82.2 141.5,0.6 282.5,82.2 282.5,245.5 141.5,327.1 
	0.5,245.5 "/>
<path fill="#1F87E7" d="M217,117.3c-1.4,11.6-2.9,23-4.3,34.5c-2.5,19.8-5,39.7-7.4,59.5c-0.3,2.1-1,3.3-2.9,4.4
	c-19.6,10.8-39.2,21.6-58.8,32.5c-1.9,1.1-3.3,1-5.2,0c-19.4-10.8-38.8-21.6-58.2-32.3c-1.5-0.8-2.2-1.9-2.4-3.6
	c-3.5-31.1-7.1-62.1-10.8-93.1c-0.2-2.1,0.3-2.9,2.3-3.6c23.2-8.2,46.4-16.5,69.7-24.7c1.2-0.4,2.7-0.5,3.8-0.1
	c24.1,8.1,48.1,16.3,72.2,24.6C216,115.6,217.4,115.7,217,117.3z M195,211.2c-18-38.5-35.9-76.7-54.1-115.6
	C123.5,134.4,106.3,172.5,89,211c1,0,1.6,0.1,2.2,0.1c5.1-0.1,10.1-0.2,15.2-0.2c1.6,0,2.4-0.5,2.9-2c2.9-7.4,5.9-14.8,8.8-22.2
	c0.5-1.4,1.2-1.9,2.7-1.9c14.1,0,28.2,0,42.2-0.1c1.6,0,2.4,0.5,3,1.9c2.8,6.7,5.9,13.2,8.5,20c1.3,3.4,3.1,4.8,6.7,4.5
	C185.7,210.9,190.2,211.2,195,211.2z"/>
<path fill="#1F87E7" d="M141.4,129c6.3,13.2,12.7,26.5,19.2,40.1c-12.3,0-24.3,0-36.8,0c5.7-13.6,11.3-26.8,16.8-40
	C140.9,129,141.2,129,141.4,129z"/>
</svg>
