<?xml version="1.0" encoding="utf-8"?>
<!-- Generator: Adobe Illustrator 18.0.0, SVG Export Plug-In . SVG Version: 6.00 Build 0)  -->
<!DOCTYPE svg PUBLIC "-//W3C//DTD SVG 1.1//EN" "http://www.w3.org/Graphics/SVG/1.1/DTD/svg11.dtd">
<svg version="1.1" id="Layer_1" xmlns="http://www.w3.org/2000/svg" xmlns:xlink="http://www.w3.org/1999/xlink" x="0px" y="0px"
	 viewBox="181.1 0.8 661.9 766.3" enable-background="new 181.1 0.8 661.9 766.3" xml:space="preserve">
<polygon fill="none" stroke="#1F87E7" stroke-width="14" stroke-miterlimit="10" points="216.7,213 513.2,42 809.6,213 809.6,555 
	513.2,726 216.7,555 "/>
<polygon fill="none" stroke="#666666" stroke-miterlimit="10" points="181.6,192.6 512,1.4 842.4,192.6 842.4,575.4 512,766.6 
	181.6,575.4 "/>
<path fill="#1F87E7" d="M688.9,274.9c-3.3,27.2-6.8,53.9-10.1,80.9c-5.9,46.4-11.7,93-17.3,139.4c-0.7,4.9-2.3,7.7-6.8,10.3
	c-45.9,25.3-91.9,50.6-137.8,76.2c-4.5,2.6-7.7,2.3-12.2,0c-45.5-25.3-90.9-50.6-136.4-75.7c-3.5-1.9-5.2-4.5-5.6-8.4
	c-8.2-72.9-16.6-145.5-25.3-218.2c-0.5-4.9,0.7-6.8,5.4-8.4c54.4-19.2,108.7-38.7,163.3-57.9c2.8-0.9,6.3-1.2,8.9-0.2
	c56.5,19,112.7,38.2,169.2,57.7C686.6,270.9,689.9,271.2,688.9,274.9z M637.4,495c-42.2-90.2-84.1-179.8-126.8-270.9
	C469.8,315,429.5,404.3,389,494.5c2.3,0,3.7,0.2,5.2,0.2c12-0.2,23.7-0.5,35.6-0.5c3.7,0,5.6-1.2,6.8-4.7
	c6.8-17.3,13.8-34.7,20.6-52c1.2-3.3,2.8-4.5,6.3-4.5c33,0,66.1,0,98.9-0.2c3.7,0,5.6,1.2,7,4.5c6.6,15.7,13.8,30.9,19.9,46.9
	c3,8,7.3,11.2,15.7,10.5C615.6,494.3,626.1,495,637.4,495z"/>
<path fill="#1F87E7" d="M511.8,302.3c14.8,30.9,29.8,62.1,45,94c-28.8,0-56.9,0-86.2,0c13.4-31.9,26.5-62.8,39.4-93.7
	C510.6,302.3,511.3,302.3,511.8,302.3z"/>
</svg>
