<?xml version="1.0" encoding="utf-8"?>
<!-- Generator: Adobe Illustrator 18.0.0, SVG Export Plug-In . SVG Version: 6.00 Build 0)  -->
<!DOCTYPE svg PUBLIC "-//W3C//DTD SVG 1.1//EN" "http://www.w3.org/Graphics/SVG/1.1/DTD/svg11.dtd">
<svg version="1.1" id="Layer_1" xmlns="http://www.w3.org/2000/svg" xmlns:xlink="http://www.w3.org/1999/xlink" x="0px" y="0px"
	 viewBox="0 0 283 327.7" enable-background="new 0 0 283 327.7" xml:space="preserve">
<polygon fill="none" stroke="#1F87E7" stroke-width="7" stroke-miterlimit="10" points="14.5,90.9 141,17.9 267.5,90.9 267.5,236.8 
	141,309.8 14.5,236.8 "/>
<polygon fill="none" stroke="#DDDDDD" stroke-miterlimit="10" points="0.5,82.2 141.5,0.6 282.5,82.2 282.5,245.5 141.5,327.1 
	0.5,245.5 "/>
<path fill="#1F87E7" d="M168.8,158.8c0.5,0.2,0.6,0.3,0.8,0.4c12.2,3.9,18.8,12.4,20.1,24.9c1.3,12.6-2.4,23.2-13.3,30.6
	c-6.2,4.2-13.2,6.2-20.6,7c-2.8,0.3-5.7,0.4-8.5,0.4c-17.4,0-34.9,0-52.3,0c-0.7,0-1.4,0-2.3,0c0-38.8,0-77.4,0-116.3
	c0.6,0,1.2,0,1.9,0c17.7,0,35.4-0.1,53.1,0.1c5.4,0.1,10.9,0.6,16.2,1.8c13.2,2.9,20,11.7,20.6,25.1c0.5,11.5-4.1,20-14.4,25.4
	C169.6,158.3,169.3,158.5,168.8,158.8z M118.1,202c0.6,0,1.1,0.1,1.7,0.1c8.7,0,17.3,0,26,0c1.9,0,3.9-0.2,5.8-0.5
	c6.8-1.1,11.5-4.9,12.3-10.8c0.4-3.1,0.2-6.4-0.2-9.5c-0.6-4-3.1-6.9-6.7-8.7c-3.6-1.8-7.5-2.4-11.4-2.3c-8.5,0-16.9,0-25.4,0
	c-0.6,0-1.3,0.1-2,0.1C118.1,181,118.1,191.4,118.1,202z M118.1,152.5c10,0,19.8,0.5,29.6-0.1c8.4-0.5,12.7-6.8,11.8-15.2
	c-0.6-5.5-3.6-9.1-8.9-10.5c-2.7-0.7-5.6-1-8.4-1.1c-7.4-0.1-14.9-0.1-22.3,0c-0.6,0-1.2,0.1-1.8,0.1
	C118.1,134.8,118.1,143.7,118.1,152.5z"/>
</svg>
