<?xml version="1.0" encoding="utf-8"?>
<!-- Generator: Adobe Illustrator 18.0.0, SVG Export Plug-In . SVG Version: 6.00 Build 0)  -->
<!DOCTYPE svg PUBLIC "-//W3C//DTD SVG 1.1//EN" "http://www.w3.org/Graphics/SVG/1.1/DTD/svg11.dtd">
<svg version="1.1" id="Layer_1" xmlns="http://www.w3.org/2000/svg" xmlns:xlink="http://www.w3.org/1999/xlink" x="0px" y="0px"
	 viewBox="181.1 0.8 661.9 766.3" enable-background="new 181.1 0.8 661.9 766.3" xml:space="preserve">
<polygon fill="none" stroke="#1F87E7" stroke-width="14" stroke-miterlimit="10" points="214.4,213 510.8,42 807.3,213 807.3,555 
	510.8,726 214.4,555 "/>
<polygon fill="none" stroke="#666666" stroke-miterlimit="10" points="181.6,192.6 512,1.4 842.4,192.6 842.4,575.4 512,766.6 
	181.6,575.4 "/>
<path fill="#1F87E7" d="M576,372.2c1.2,0.5,1.4,0.7,1.9,0.9c28.6,9.1,44.1,29.1,47.1,58.4c3,29.5-5.6,54.4-31.2,71.7
	c-14.5,9.8-30.9,14.5-48.3,16.4c-6.6,0.7-13.4,0.9-19.9,0.9c-40.8,0-81.8,0-122.6,0c-1.6,0-3.3,0-5.4,0c0-90.9,0-181.4,0-272.6
	c1.4,0,2.8,0,4.5,0c41.5,0,83-0.2,124.4,0.2c12.7,0.2,25.5,1.4,38,4.2c30.9,6.8,46.9,27.4,48.3,58.8c1.2,27-9.6,46.9-33.7,59.5
	C577.9,371,577.2,371.5,576,372.2z M457.2,473.4c1.4,0,2.6,0.2,4,0.2c20.4,0,40.5,0,60.9,0c4.5,0,9.1-0.5,13.6-1.2
	c15.9-2.6,27-11.5,28.8-25.3c0.9-7.3,0.5-15-0.5-22.3c-1.4-9.4-7.3-16.2-15.7-20.4c-8.4-4.2-17.6-5.6-26.7-5.4
	c-19.9,0-39.6,0-59.5,0c-1.4,0-3,0.2-4.7,0.2C457.2,424.2,457.2,448.6,457.2,473.4z M457.2,357.4c23.4,0,46.4,1.2,69.4-0.2
	c19.7-1.2,29.8-15.9,27.7-35.6c-1.4-12.9-8.4-21.3-20.9-24.6c-6.3-1.6-13.1-2.3-19.7-2.6c-17.3-0.2-34.9-0.2-52.3,0
	c-1.4,0-2.8,0.2-4.2,0.2C457.2,315.9,457.2,336.8,457.2,357.4z"/>
</svg>
