<?xml version="1.0" encoding="utf-8"?>
<!-- Generator: Adobe Illustrator 18.0.0, SVG Export Plug-In . SVG Version: 6.00 Build 0)  -->
<!DOCTYPE svg PUBLIC "-//W3C//DTD SVG 1.1//EN" "http://www.w3.org/Graphics/SVG/1.1/DTD/svg11.dtd">
<svg version="1.1" id="Layer_1" xmlns="http://www.w3.org/2000/svg" xmlns:xlink="http://www.w3.org/1999/xlink" x="0px" y="0px"
	 viewBox="181.1 0.8 661.9 766.3" enable-background="new 181.1 0.8 661.9 766.3" xml:space="preserve">
<polygon fill="none" stroke="#1F87E7" stroke-width="14" stroke-miterlimit="10" points="216.7,213 513.2,42 809.6,213 809.6,555 
	513.2,726 216.7,555 "/>
<polygon fill="none" stroke="#666666" stroke-miterlimit="10" points="181.6,192.6 512,1.4 842.4,192.6 842.4,575.4 512,766.6 
	181.6,575.4 "/>
<g>
	<path fill="#1F87E7" d="M426.2,466.1c-13.6,10.5-40.3,7.5-54.1-4.9c-18.7-17.1-22.3-43.1-8.2-66.1c4-6.6,9.1-12.7,14.8-18.3
		c4.5-4.5,4.7-8.2,3-13.8c-3.7-13.1-6.8-26.5-10.5-41c31.4,21.8,66.3,26,100.8,27.7c39.8,1.6,80.2,0.2,120-2.3
		c25.8-1.6,51.3-7,73.6-21.6c0.7-0.5,1.6-0.5,4.2-1.4c-4.5,15.5-8.2,29.8-12.4,43.8c-7,23.4-19.5,44.1-34,63.5
		c-9.4,12.7-17.6,25.8-22.5,40.8c-4,12.2-13.1,20.9-25.1,24.4c-12.9,3.7-26.2,6.6-39.6,7.7c-23.2,1.9-46.6,2.3-68.7-7.5
		c-4.7-2.1-9.4-4.5-13.8-7c-6.1-3.5-9.6-8.4-12.4-15.5c-5.2-12.7-12.2-24.6-19.2-36.3c-9.6-16.2-19.9-32.1-30-48.3
		c-0.7-1.2-1.6-2.1-3-4c-9.1,12-13.1,24.4-9.1,38.7C385.9,448.8,402.6,461,426.2,466.1z"/>
	<path fill="#1F87E7" d="M385.4,279.6c-4.9,12.2-3.7,15.9,6.6,21.6c16.9,9.4,35.6,12.9,54.6,15c41.5,4.5,83,4.9,124.4,1.4
		c18.5-1.6,36.6-7.3,54.8-11c2.8-0.7,5.4-1.9,8-2.8c11-4.7,13.4-8.4,13.4-20.6c6.3,3,12.4,5.9,13.8,13.1c1.6,7.5-3.5,12-9.1,15.2
		c-15.2,8.9-31.9,13.6-49,15.9c-63.3,8.9-126.6,11-189.6-2.3c-12.2-2.6-24.1-7-35.6-11.7c-6.6-2.6-14.1-6.8-13.8-15.5
		c0.2-8,7.7-10.8,13.6-14.1C379.1,282.2,381.5,281.5,385.4,279.6z"/>
	<path fill="#1F87E7" d="M475.4,274.7c-3.7,0-7.5,0-11.2,0c-5.2,0-10.3-0.5-15.5,0.5c-2.3,0.5-4.2,3-6.3,4.7
		c1.9,2.3,3.3,6.1,5.6,6.6c5.4,1.2,11.7,2.3,16.6,0.9c10.3-3.3,20.4-7.3,29.8-12.7c21.3-12,43.8-16.4,67.7-12
		c8.2,1.6,16.6,4.7,23.4,9.4c10.8,7.3,9.8,19-1.4,25.3c-15.7,8.7-32.6,8.4-49.7,4c-1.6-0.5-3.7-1.4-4.7-2.8c-1.6-2.3-4-5.9-3.3-7.7
		c2.1-4.9,8.7-6.1,12.4-3c9.8,7.5,20.4,6.3,30.9,2.8c2.3-0.9,5.9-4.7,5.4-6.3c-0.7-2.6-3.7-5.6-6.3-6.6c-12.7-3.7-25.5-2.8-37.7,1.6
		c-10.3,3.5-20.2,8.2-30.2,12.4c-14.5,6.3-29.5,11.7-45.5,7.7c-7-1.6-14.1-5.6-19.5-10.5c-7.5-6.8-4.2-17.1,5.6-19.5
		c7.3-1.6,15-2.6,22.5-2.6c4,0,8,3,12.2,4.7C475.9,272.6,475.7,273.5,475.4,274.7z"/>
</g>
</svg>
