<?xml version="1.0" encoding="utf-8"?>
<!-- Generator: Adobe Illustrator 18.0.0, SVG Export Plug-In . SVG Version: 6.00 Build 0)  -->
<!DOCTYPE svg PUBLIC "-//W3C//DTD SVG 1.1//EN" "http://www.w3.org/Graphics/SVG/1.1/DTD/svg11.dtd">
<svg version="1.1" id="Layer_1" xmlns="http://www.w3.org/2000/svg" xmlns:xlink="http://www.w3.org/1999/xlink" x="0px" y="0px"
	 viewBox="0 0 283 327.7" enable-background="new 0 0 283 327.7" xml:space="preserve">
<polygon fill="none" stroke="#1F87E7" stroke-width="7" stroke-miterlimit="10" points="15.5,90.9 142,17.9 268.5,90.9 268.5,236.8 
	142,309.8 15.5,236.8 "/>
<polygon fill="none" stroke="#DDDDDD" stroke-miterlimit="10" points="0.5,82.2 141.5,0.6 282.5,82.2 282.5,245.5 141.5,327.1 
	0.5,245.5 "/>
<g>
	<path fill="#1F87E7" d="M104.9,198.9c-5.8,4.5-17.2,3.2-23.1-2.1c-8-7.3-9.5-18.4-3.5-28.2c1.7-2.8,3.9-5.4,6.3-7.8
		c1.9-1.9,2-3.5,1.3-5.9c-1.6-5.6-2.9-11.3-4.5-17.5c13.4,9.3,28.3,11.1,43,11.8c17,0.7,34.2,0.1,51.2-1c11-0.7,21.9-3,31.4-9.2
		c0.3-0.2,0.7-0.2,1.8-0.6c-1.9,6.6-3.5,12.7-5.3,18.7c-3,10-8.3,18.8-14.5,27.1c-4,5.4-7.5,11-9.6,17.4c-1.7,5.2-5.6,8.9-10.7,10.4
		c-5.5,1.6-11.2,2.8-16.9,3.3c-9.9,0.8-19.9,1-29.3-3.2c-2-0.9-4-1.9-5.9-3c-2.6-1.5-4.1-3.6-5.3-6.6c-2.2-5.4-5.2-10.5-8.2-15.5
		c-4.1-6.9-8.5-13.7-12.8-20.6c-0.3-0.5-0.7-0.9-1.3-1.7c-3.9,5.1-5.6,10.4-3.9,16.5C87.7,191.5,94.8,196.7,104.9,198.9z"/>
	<path fill="#1F87E7" d="M87.5,119.3c-2.1,5.2-1.6,6.8,2.8,9.2c7.2,4,15.2,5.5,23.3,6.4c17.7,1.9,35.4,2.1,53.1,0.6
		c7.9-0.7,15.6-3.1,23.4-4.7c1.2-0.3,2.3-0.8,3.4-1.2c4.7-2,5.7-3.6,5.7-8.8c2.7,1.3,5.3,2.5,5.9,5.6c0.7,3.2-1.5,5.1-3.9,6.5
		c-6.5,3.8-13.6,5.8-20.9,6.8c-27,3.8-54,4.7-80.9-1c-5.2-1.1-10.3-3-15.2-5c-2.8-1.1-6-2.9-5.9-6.6c0.1-3.4,3.3-4.6,5.8-6
		C84.8,120.4,85.8,120.1,87.5,119.3z"/>
	<path fill="#1F87E7" d="M125.9,117.2c-1.6,0-3.2,0-4.8,0c-2.2,0-4.4-0.2-6.6,0.2c-1,0.2-1.8,1.3-2.7,2c0.8,1,1.4,2.6,2.4,2.8
		c2.3,0.5,5,1,7.1,0.4c4.4-1.4,8.7-3.1,12.7-5.4c9.1-5.1,18.7-7,28.9-5.1c3.5,0.7,7.1,2,10,4c4.6,3.1,4.2,8.1-0.6,10.8
		c-6.7,3.7-13.9,3.6-21.2,1.7c-0.7-0.2-1.6-0.6-2-1.2c-0.7-1-1.7-2.5-1.4-3.3c0.9-2.1,3.7-2.6,5.3-1.3c4.2,3.2,8.7,2.7,13.2,1.2
		c1-0.4,2.5-2,2.3-2.7c-0.3-1.1-1.6-2.4-2.7-2.8c-5.4-1.6-10.9-1.2-16.1,0.7c-4.4,1.5-8.6,3.5-12.9,5.3c-6.2,2.7-12.6,5-19.4,3.3
		c-3-0.7-6-2.4-8.3-4.5c-3.2-2.9-1.8-7.3,2.4-8.3c3.1-0.7,6.4-1.1,9.6-1.1c1.7,0,3.4,1.3,5.2,2C126.1,116.3,126,116.7,125.9,117.2z"
		/>
</g>
</svg>
