<?xml version="1.0" encoding="utf-8"?>
<!-- Generator: Adobe Illustrator 18.0.0, SVG Export Plug-In . SVG Version: 6.00 Build 0)  -->
<!DOCTYPE svg PUBLIC "-//W3C//DTD SVG 1.1//EN" "http://www.w3.org/Graphics/SVG/1.1/DTD/svg11.dtd">
<svg version="1.1" id="Layer_1" xmlns="http://www.w3.org/2000/svg" xmlns:xlink="http://www.w3.org/1999/xlink" x="0px" y="0px"
	 viewBox="0 0 520.8 487" enable-background="new 0 0 520.8 487" xml:space="preserve">
<path fill="#FFFFFF" stroke="#CCCCCC" stroke-miterlimit="10" d="M492.6,486.5H28c-2.6,0-4.7-2.1-4.7-4.7V5.2c0-2.6,2.1-4.7,4.7-4.7
	h464.5c2.6,0,4.7,2.1,4.7,4.7v476.5C497.3,484.4,495.2,486.5,492.6,486.5z"/>
<line fill="none" stroke="#CCCCCC" stroke-miterlimit="10" x1="22.7" y1="42.9" x2="497.7" y2="42.9"/>
<circle fill="#59CB51" cx="85.7" cy="21.9" r="7.5"/>
<circle fill="#FDBD47" cx="64.4" cy="21.9" r="7.5"/>
<circle fill="#F45C58" cx="43.2" cy="21.9" r="7.5"/>
<rect x="181.3" y="208.4" fill="#FFFFFF" stroke="#AAAAAA" stroke-miterlimit="10" width="158" height="99"/>
<rect x="362.3" y="208.4" fill="#FFFFFF" stroke="#AAAAAA" stroke-miterlimit="10" width="158" height="99"/>
<rect x="0.5" y="208.4" fill="#FFFFFF" stroke="#AAAAAA" stroke-miterlimit="10" width="158" height="99"/>
<rect x="181.3" y="331.4" fill="#FFFFFF" stroke="#AAAAAA" stroke-miterlimit="10" width="158" height="99"/>
<rect x="362.3" y="331.4" fill="#FFFFFF" stroke="#AAAAAA" stroke-miterlimit="10" width="158" height="99"/>
<rect x="0.5" y="331.4" fill="#FFFFFF" stroke="#AAAAAA" stroke-miterlimit="10" width="158" height="99"/>
<text transform="matrix(1 0 0 1 77.5404 135.0579)" fill="#666666" font-family="'OpenSans-Light'" font-size="42">Own Your Website</text>
<text transform="matrix(0.9004 0 0 1 421.5645 133.0578)" fill="#666666" font-family="'OpenSans-Light'" font-size="48">|</text>
</svg>
