<?xml version="1.0" encoding="utf-8"?>
<!-- Generator: Adobe Illustrator 18.0.0, SVG Export Plug-In . SVG Version: 6.00 Build 0)  -->
<!DOCTYPE svg PUBLIC "-//W3C//DTD SVG 1.1//EN" "http://www.w3.org/Graphics/SVG/1.1/DTD/svg11.dtd">
<svg version="1.1" id="Layer_1" xmlns="http://www.w3.org/2000/svg" xmlns:xlink="http://www.w3.org/1999/xlink" x="0px" y="0px"
	 viewBox="0 0 520.8 487" enable-background="new 0 0 520.8 487" xml:space="preserve">
<path fill="#FFFFFF" stroke="#CCCCCC" stroke-miterlimit="10" d="M492.8,487.1H28.3c-2.6,0-4.7-2.1-4.7-4.7V5.9
	c0-2.6,2.1-4.7,4.7-4.7h464.5c2.6,0,4.7,2.1,4.7,4.7v476.5C497.6,485,495.4,487.1,492.8,487.1z"/>
<line fill="none" stroke="#CCCCCC" stroke-miterlimit="10" x1="22.7" y1="31.9" x2="497.7" y2="31.9"/>
<circle fill="#59CB51" cx="66.7" cy="16.5" r="5"/>
<circle fill="#FDBD47" cx="52.7" cy="16.5" r="5"/>
<circle fill="#F45C58" cx="38.7" cy="16.5" r="5"/>
<rect x="181.6" y="209" fill="#FFFFFF" stroke="#AAAAAA" stroke-miterlimit="10" width="158" height="99"/>
<rect x="362.6" y="209" fill="#FFFFFF" stroke="#AAAAAA" stroke-miterlimit="10" width="158" height="99"/>
<rect x="0.8" y="209" fill="#FFFFFF" stroke="#AAAAAA" stroke-miterlimit="10" width="158" height="99"/>
<rect x="181.6" y="332" fill="#FFFFFF" stroke="#AAAAAA" stroke-miterlimit="10" width="158" height="99"/>
<rect x="362.6" y="332" fill="#FFFFFF" stroke="#AAAAAA" stroke-miterlimit="10" width="158" height="99"/>
<rect x="0.8" y="332" fill="#FFFFFF" stroke="#AAAAAA" stroke-miterlimit="10" width="158" height="99"/>
<text transform="matrix(1 0 0 1 103.8011 121.6667)" fill="#666666" font-family="'OpenSans-Light'" font-size="36">Own Your Website</text>
<text transform="matrix(0.9004 0 0 1 397.8252 119.6665)" fill="#666666" font-family="'OpenSans-Light'" font-size="42">|</text>
</svg>
