<?xml version="1.0" encoding="utf-8"?>
<!-- Generator: Adobe Illustrator 18.0.0, SVG Export Plug-In . SVG Version: 6.00 Build 0)  -->
<!DOCTYPE svg PUBLIC "-//W3C//DTD SVG 1.1//EN" "http://www.w3.org/Graphics/SVG/1.1/DTD/svg11.dtd">
<svg version="1.1" id="Layer_1" xmlns="http://www.w3.org/2000/svg" xmlns:xlink="http://www.w3.org/1999/xlink" x="0px" y="0px"
	 viewBox="203.3 1.4 821.5 768" enable-background="new 203.3 1.4 821.5 768" xml:space="preserve">
<path fill="#FFFFFF" stroke="#CCCCCC" stroke-miterlimit="10" d="M980.4,768.9H247.3c-4.1,0-7.4-3.3-7.4-7.4V9.3
	c0-4.1,3.3-7.4,7.4-7.4h733.2c4.1,0,7.4,3.3,7.4,7.4v752.1C988,765.5,984.5,768.9,980.4,768.9z"/>
<line fill="none" stroke="#CCCCCC" stroke-miterlimit="10" x1="238.4" y1="50.3" x2="988.1" y2="50.3"/>
<circle fill="#59CB51" cx="307.8" cy="26" r="7.9"/>
<circle fill="#FDBD47" cx="285.8" cy="26" r="7.9"/>
<circle fill="#F45C58" cx="263.7" cy="26" r="7.9"/>
<rect x="489.2" y="329.9" fill="#FFFFFF" stroke="#AAAAAA" stroke-miterlimit="10" width="249.4" height="156.2"/>
<rect x="774.9" y="329.9" fill="#FFFFFF" stroke="#AAAAAA" stroke-miterlimit="10" width="249.4" height="156.2"/>
<rect x="203.8" y="329.9" fill="#FFFFFF" stroke="#AAAAAA" stroke-miterlimit="10" width="249.4" height="156.2"/>
<rect x="489.2" y="524.1" fill="#FFFFFF" stroke="#AAAAAA" stroke-miterlimit="10" width="249.4" height="156.2"/>
<rect x="774.9" y="524.1" fill="#FFFFFF" stroke="#AAAAAA" stroke-miterlimit="10" width="249.4" height="156.2"/>
<rect x="203.8" y="524.1" fill="#FFFFFF" stroke="#AAAAAA" stroke-miterlimit="10" width="249.4" height="156.2"/>
<text transform="matrix(1 0 0 1 366.4175 192.0425)" fill="#666666" font-family="'OpenSans-Light'" font-size="56.8239">Own Your Website</text>
<text transform="matrix(0.9004 0 0 1 830.5166 191.8877)" fill="#666666" font-family="'OpenSans-Light'" font-size="66.2945">|</text>
<line fill="none" stroke="#AAAAAA" stroke-miterlimit="10" x1="203.8" y1="486.1" x2="240.1" y2="522.4"/>
<line fill="none" stroke="#AAAAAA" stroke-miterlimit="10" x1="203.8" y1="680.3" x2="240.1" y2="716.6"/>
<line fill="none" stroke="#AAAAAA" stroke-miterlimit="10" x1="1024.4" y1="486.1" x2="988" y2="522.5"/>
<line fill="none" stroke="#AAAAAA" stroke-miterlimit="10" x1="1024.4" y1="680.2" x2="988" y2="716.6"/>
</svg>
