<?xml version="1.0" encoding="utf-8"?>
<!-- Generator: Adobe Illustrator 18.0.0, SVG Export Plug-In . SVG Version: 6.00 Build 0)  -->
<!DOCTYPE svg PUBLIC "-//W3C//DTD SVG 1.1//EN" "http://www.w3.org/Graphics/SVG/1.1/DTD/svg11.dtd">
<svg version="1.1" id="Layer_1" xmlns="http://www.w3.org/2000/svg" xmlns:xlink="http://www.w3.org/1999/xlink" x="0px" y="0px"
	 viewBox="181.1 0.8 661.9 766.3" enable-background="new 181.1 0.8 661.9 766.3" xml:space="preserve">
<polygon fill="none" stroke="#1F87E7" stroke-width="14" stroke-miterlimit="10" points="216.7,213 513.2,42 809.6,213 809.6,555 
	513.2,726 216.7,555 "/>
<polygon fill="none" stroke="#666666" stroke-miterlimit="10" points="181.6,192.6 512,1.4 842.4,192.6 842.4,575.4 512,766.6 
	181.6,575.4 "/>
<path fill="#1F87E7" d="M622.9,385.8c-12-16.9-23.4-33-34.9-49.5c-4.9-7-4.2-9.1,4.2-10.5c16.4-2.8,32.6-5.2,49-8.2
	c6.6-1.2,11,0.9,15.2,5.9c13.6,17.1,27.4,34,41,50.9c3.7,4.7,3.3,6.1-2.8,7.7c-15,4.2-30,8-45,12.2c-1.2,0.2-2.6,0.7-4.5,1.4
	c2.6,3.3,4.7,6.1,6.8,9.1c12.7,17.1,25.3,34,38,51.1c4.2,5.9,4,7.5-3,10.1c-41.2,14.8-82.3,29.5-123.5,44.1
	c-10.5,3.7-14.3,2.1-19.7-7.5c-12.7-22-25.3-44.3-37.5-66.6c-2.1-4-4.2-4.9-8.7-3.5c-23.4,6.3-47.1,12.2-70.5,18.3
	c-12,3-17.3,0.5-22.3-10.5c-24.6-53.2-49.2-106.6-73.8-159.8c-1.2-2.6-2.3-4.9-3-7.5c-2.3-7-0.7-9.8,6.6-10.5
	c16.9-1.6,33.7-2.8,50.6-4.2c7-0.5,14.1-0.7,20.9-1.6c8-1.2,12.4,2.1,16.4,8.9c19.7,33.3,39.6,66.6,59.5,99.6
	c8.9,14.8,17.8,29.8,26.7,44.5c1.4,2.3,2.3,4.2,5.6,3.3c35.6-8.7,71.5-17.1,107.1-25.8C621.2,386.7,621.7,386.2,622.9,385.8z
	 M494.4,417.2c-0.9-2.1-1.2-3-1.9-4c-27.7-47.6-55.1-95.2-82.7-142.7c-0.9-1.9-4.2-3.3-6.3-3.3c-12.2,0.7-24.4,1.9-36.6,3
	c-7.7,0.7-15.2,1.4-23.7,2.1c0.7,1.9,0.9,3.3,1.6,4.5c24.8,51.3,49.9,102.6,74.5,154.2c1.4,3,3.3,3.5,6.3,2.8
	c8-2.1,15.9-3.7,23.9-5.6C464.4,424.4,479.2,420.7,494.4,417.2z M518.1,427c12.4,21.1,24.1,41.2,35.9,61.2c2.1,3.5,4.5,4.5,8.7,3
	c34.7-12,69.6-23.7,104.3-35.4c1.9-0.7,3.5-1.4,5.4-2.3c-0.7-1.4-0.9-2.3-1.4-3c-12.2-16.9-24.4-33.7-36.8-50.4
	c-0.9-1.4-4.5-2.1-6.3-1.4c-20.9,5.2-41.7,10.8-62.6,16.2C549.5,418.8,534.3,422.8,518.1,427z M682.6,371.5
	c-10.1-12.7-19.5-24.1-28.1-36.1c-4.7-6.6-9.4-9.6-17.3-6.8c-2.6,0.9-5.6,0.9-8.7,1.6c-9.1,1.6-18,3.3-27.4,5.2
	c0.5,1.2,0.5,1.9,0.9,2.3c10.3,14.3,20.6,28.6,31.4,42.9c0.9,1.4,4,2.1,5.9,1.6c7.5-1.4,14.8-3.5,22-5.4
	C668.1,375.2,674.9,373.6,682.6,371.5z"/>
</svg>
