<?xml version="1.0" encoding="utf-8"?>
<!-- Generator: Adobe Illustrator 18.0.0, SVG Export Plug-In . SVG Version: 6.00 Build 0)  -->
<!DOCTYPE svg PUBLIC "-//W3C//DTD SVG 1.1//EN" "http://www.w3.org/Graphics/SVG/1.1/DTD/svg11.dtd">
<svg version="1.1" id="Layer_1" xmlns="http://www.w3.org/2000/svg" xmlns:xlink="http://www.w3.org/1999/xlink" x="0px" y="0px"
	 viewBox="0 0 283 327.7" enable-background="new 0 0 283 327.7" xml:space="preserve">
<polygon fill="none" stroke="#1F87E7" stroke-width="7" stroke-miterlimit="10" points="15.5,90.9 142,17.9 268.5,90.9 268.5,236.8 
	142,309.8 15.5,236.8 "/>
<polygon fill="none" stroke="#DDDDDD" stroke-miterlimit="10" points="0.5,82.2 141.5,0.6 282.5,82.2 282.5,245.5 141.5,327.1 
	0.5,245.5 "/>
<path fill="#1F87E7" d="M188.8,164.6c-5.1-7.2-10-14.1-14.9-21.1c-2.1-3-1.8-3.9,1.8-4.5c7-1.2,13.9-2.2,20.9-3.5
	c2.8-0.5,4.7,0.4,6.5,2.5c5.8,7.3,11.7,14.5,17.5,21.7c1.6,2,1.4,2.6-1.2,3.3c-6.4,1.8-12.8,3.4-19.2,5.2c-0.5,0.1-1.1,0.3-1.9,0.6
	c1.1,1.4,2,2.6,2.9,3.9c5.4,7.3,10.8,14.5,16.2,21.8c1.8,2.5,1.7,3.2-1.3,4.3c-17.6,6.3-35.1,12.6-52.7,18.8
	c-4.5,1.6-6.1,0.9-8.4-3.2c-5.4-9.4-10.8-18.9-16-28.4c-0.9-1.7-1.8-2.1-3.7-1.5c-10,2.7-20.1,5.2-30.1,7.8
	c-5.1,1.3-7.4,0.2-9.5-4.5c-10.5-22.7-21-45.5-31.5-68.2c-0.5-1.1-1-2.1-1.3-3.2c-1-3-0.3-4.2,2.8-4.5c7.2-0.7,14.4-1.2,21.6-1.8
	c3-0.2,6-0.3,8.9-0.7c3.4-0.5,5.3,0.9,7,3.8c8.4,14.2,16.9,28.4,25.4,42.5c3.8,6.3,7.6,12.7,11.4,19c0.6,1,1,1.8,2.4,1.4
	c15.2-3.7,30.5-7.3,45.7-11C188.1,165,188.3,164.8,188.8,164.6z M134,178c-0.4-0.9-0.5-1.3-0.8-1.7c-11.8-20.3-23.5-40.6-35.3-60.9
	c-0.4-0.8-1.8-1.4-2.7-1.4c-5.2,0.3-10.4,0.8-15.6,1.3c-3.3,0.3-6.5,0.6-10.1,0.9c0.3,0.8,0.4,1.4,0.7,1.9
	c10.6,21.9,21.3,43.8,31.8,65.8c0.6,1.3,1.4,1.5,2.7,1.2c3.4-0.9,6.8-1.6,10.2-2.4C121.2,181.1,127.5,179.5,134,178z M144.1,182.2
	c5.3,9,10.3,17.6,15.3,26.1c0.9,1.5,1.9,1.9,3.7,1.3c14.8-5.1,29.7-10.1,44.5-15.1c0.8-0.3,1.5-0.6,2.3-1c-0.3-0.6-0.4-1-0.6-1.3
	c-5.2-7.2-10.4-14.4-15.7-21.5c-0.4-0.6-1.9-0.9-2.7-0.6c-8.9,2.2-17.8,4.6-26.7,6.9C157.5,178.7,151,180.4,144.1,182.2z
	 M214.3,158.5c-4.3-5.4-8.3-10.3-12-15.4c-2-2.8-4-4.1-7.4-2.9c-1.1,0.4-2.4,0.4-3.7,0.7c-3.9,0.7-7.7,1.4-11.7,2.2
	c0.2,0.5,0.2,0.8,0.4,1c4.4,6.1,8.8,12.2,13.4,18.3c0.4,0.6,1.7,0.9,2.5,0.7c3.2-0.6,6.3-1.5,9.4-2.3
	C208.1,160.1,211,159.4,214.3,158.5z"/>
</svg>
