<?xml version="1.0" encoding="utf-8"?>
<!-- Generator: Adobe Illustrator 18.0.0, SVG Export Plug-In . SVG Version: 6.00 Build 0)  -->
<!DOCTYPE svg PUBLIC "-//W3C//DTD SVG 1.1//EN" "http://www.w3.org/Graphics/SVG/1.1/DTD/svg11.dtd">
<svg version="1.1"
	 id="svg2" xmlns:rdf="http://www.w3.org/1999/02/22-rdf-syntax-ns#" xmlns:sodipodi="http://sodipodi.sourceforge.net/DTD/sodipodi-0.dtd" xmlns:inkscape="http://www.inkscape.org/namespaces/inkscape" xmlns:svg="http://www.w3.org/2000/svg" xmlns:cc="http://creativecommons.org/ns#" xmlns:dc="http://purl.org/dc/elements/1.1/"
	 xmlns="http://www.w3.org/2000/svg" xmlns:xlink="http://www.w3.org/1999/xlink" x="0px" y="0px"
	 viewBox="-588.4 -43.4 1687.5 711.1" enable-background="new -588.4 -43.4 1687.5 711.1" xml:space="preserve">
<g>
	<g id="layer1" transform="translate(0,-540.36218)">
		<g id="g4305">
			<g id="g4345" transform="translate(28,-40.00001)">
				<g id="text2994">
					<g id="g3830" transform="translate(0,15.24359)">
						<g id="g3838">
							<g id="g3785">
								<path id="rect3909" fill="#222222" d="M-242.9,521.7v582.7h940.5V521.7H-242.9z M-181.5,583.1h817.8v460h-817.8
									L-181.5,583.1L-181.5,583.1z M22.9,1124.9l-40.9,40.9v20.4h490.7v-20.4l-40.9-40.9H22.9z"/>
							</g>
						</g>
					</g>
					<g id="layer1-4" transform="translate(539.77941,-13.359245)">
						<g id="layer1-5" transform="translate(-573.14286,170.28574)">
						</g>
					</g>
				</g>
			</g>
		</g>
	</g>
	<rect x="-191.2" y="-19.8" fill="#FFFFFF" width="893.2" height="497.7"/>
</g>
<g>
	<g id="layer1_2_" transform="translate(0,-540.36218)">
		<g id="g4305_2_">
			<g id="g4345_2_" transform="translate(28,-40.00001)">
				<g id="text2994_2_">
					<g id="g3830_2_" transform="translate(0,15.24359)">
						<g id="g3838_2_">
							<g id="g3785_2_">
								<path id="rect4041" fill="#222222" d="M-602.6,912.8c-1.9,0-3.8,0.8-5.1,2.1c-1.3,1.3-2.1,3.2-2.1,5.1v304.4
									c0,1.9,0.8,3.8,2.1,5.1c1.3,1.3,3.2,2.1,5.1,2.1h228.3c1.9,0,3.8-0.8,5.1-2.1c1.3-1.3,2.1-3.2,2.1-5.1V920
									c0-1.9-0.8-3.8-2.1-5.1s-3.2-2.1-5.1-2.1H-602.6z M-588,941.8h199.3v260.9H-588V941.8z M-488.5,1212.9c4,0,7.3,3.3,7.3,7.3
									c0,4-3.3,7.3-7.3,7.3s-7.3-3.3-7.3-7.3C-495.8,1216.2-492.5,1212.9-488.5,1212.9z"/>
							</g>
						</g>
					</g>
					<g id="layer1-4_2_" transform="translate(539.77941,-13.359245)">
						<g id="layer1-5_2_" transform="translate(-573.14286,170.28574)">
						</g>
					</g>
				</g>
			</g>
		</g>
	</g>
	<rect x="-560" y="376.7" fill="#FFFFFF" width="199.3" height="260.9"/>
</g>
<g>
	<g id="layer1_1_" transform="translate(0,-540.36218)">
		<g id="g4305_1_">
			<g id="g4345_1_" transform="translate(28,-40.00001)">
				<g id="text2994_1_">
					<g id="g3830_1_" transform="translate(0,15.24359)">
						<g id="g3838_1_">
							<g id="g3785_1_">
								<path id="rect3010" fill="#222222" d="M828.8,1012.2c-4,0-8.1,1.7-10.9,4.5c-2.9,2.9-4.5,6.9-4.5,10.9v189.9
									c0,4,1.7,8.1,4.5,10.9c2.9,2.9,6.9,4.5,10.9,4.5h76.9c4,0,8.1-1.7,10.9-4.5c2.9-2.9,4.5-6.9,4.5-10.9v-189.9
									c0-4-1.7-8.1-4.5-10.9c-2.9-2.9-6.9-4.5-10.9-4.5H828.8z M859.2,1022.5L859.2,1022.5c0.2,0,0.3,0,0.4,0H875
									c1.4,0,2.6,1.1,2.6,2.5c0,1.4-1.1,2.6-2.5,2.6c0,0,0,0-0.1,0h-15.4c-1.4,0.1-2.7-1-2.8-2.4
									C856.7,1023.8,857.8,1022.6,859.2,1022.5z M818.5,1037.9H916v166.7h-97.5V1037.9z M867.3,1209.8c4.3,0,7.7,3.5,7.7,7.7
									s-3.5,7.7-7.7,7.7s-7.7-3.5-7.7-7.7S863,1209.8,867.3,1209.8z"/>
							</g>
						</g>
					</g>
					<g id="layer1-4_1_" transform="translate(539.77941,-13.359245)">
						<g id="layer1-5_1_" transform="translate(-573.14286,170.28574)">
						</g>
					</g>
				</g>
			</g>
		</g>
	</g>
	<rect x="846.5" y="472.7" fill="#FFFFFF" width="97.5" height="166.7"/>
</g>
</svg>
