<?xml version="1.0" encoding="utf-8"?>
<!-- Generator: Adobe Illustrator 18.0.0, SVG Export Plug-In . SVG Version: 6.00 Build 0)  -->
<!DOCTYPE svg PUBLIC "-//W3C//DTD SVG 1.1//EN" "http://www.w3.org/Graphics/SVG/1.1/DTD/svg11.dtd">
<svg version="1.1" id="Layer_1" xmlns="http://www.w3.org/2000/svg" xmlns:xlink="http://www.w3.org/1999/xlink" x="0px" y="0px"
	 viewBox="181.1 0.8 661.9 766.3" enable-background="new 181.1 0.8 661.9 766.3" xml:space="preserve">
<polygon fill="none" stroke="#1F87E7" stroke-width="14" stroke-miterlimit="10" points="214.4,213 510.8,42 807.3,213 807.3,555 
	510.8,726 214.4,555 "/>
<polygon fill="none" stroke="#666666" stroke-miterlimit="10" points="181.6,192.6 512,1.4 842.4,192.6 842.4,575.4 512,766.6 
	181.6,575.4 "/>
<g>
	<path fill="#1F87E7" d="M642.5,278.4H380.8c-2.1,0-4-1.2-4.9-3c-0.9-1.9-0.7-4.2,0.7-5.9l62.8-74.5c0.9-1.2,2.6-1.9,4.2-1.9H580
		c1.6,0,3,0.7,4.2,1.9l62.6,74.5c1.4,1.6,1.6,4,0.7,5.9C646.5,277.2,644.6,278.4,642.5,278.4z M392.5,267.6h238.3l-53.7-63.5H445.9
		L392.5,267.6z"/>
	<polygon fill="#1F87E7" points="511.5,437.1 376.5,276.5 384.7,269.5 511.5,420.2 638.3,269.5 646.8,276.5 	"/>
	<path fill="#1F87E7" d="M511.5,434L511.5,434c-2.3,0-4.5-1.4-5.2-3.7l-54.8-155.6c-0.7-1.6-0.2-3.5,0.7-5.2l54.8-74.5
		c2.1-2.8,6.8-2.8,8.7,0l54.8,74.5c1.2,1.4,1.4,3.3,0.7,5.2l-54.8,155.6C516,432.6,513.9,434,511.5,434z M462.8,274l48.7,138.3
		L560.3,274l-48.7-66.1L462.8,274z"/>
	
		<rect x="412.3" y="230.2" transform="matrix(0.1759 0.9844 -0.9844 0.1759 602.9996 -248.9405)" fill="#1F87E7" width="75.7" height="11"/>
	
		<rect x="567.7" y="197.9" transform="matrix(0.9844 0.176 -0.176 0.9844 50.4357 -97.1977)" fill="#1F87E7" width="11" height="75.7"/>
	
		<text transform="matrix(1 0 0 1 372.5566 547.2527)" fill="#1F87E7" font-family="'OpenSans'" font-size="101.9249" letter-spacing="-2">RSpec</text>
</g>
</svg>
