<?xml version="1.0" encoding="utf-8"?>
<!-- Generator: Adobe Illustrator 18.0.0, SVG Export Plug-In . SVG Version: 6.00 Build 0)  -->
<!DOCTYPE svg PUBLIC "-//W3C//DTD SVG 1.1//EN" "http://www.w3.org/Graphics/SVG/1.1/DTD/svg11.dtd">
<svg version="1.1" id="Layer_1" xmlns="http://www.w3.org/2000/svg" xmlns:xlink="http://www.w3.org/1999/xlink" x="0px" y="0px"
	 viewBox="0 0 283 327.7" enable-background="new 0 0 283 327.7" xml:space="preserve">
<g>
	<path fill="#1F87E7" d="M218.4,142.3H64.3c-1.2,0-2.4-0.7-2.9-1.9c-0.5-1.1-0.3-2.5,0.5-3.4l37-43.8c0.6-0.7,1.5-1.1,2.5-1.1h80.2
		c0.9,0,1.8,0.4,2.5,1.1l36.9,43.8c0.8,1,1,2.3,0.5,3.4C220.8,141.6,219.6,142.3,218.4,142.3z M71.2,135.9h140.3l-31.5-37.4h-77.2
		L71.2,135.9z"/>
	<polygon fill="#1F87E7" points="141.3,235.6 61.8,141.2 66.7,137.1 141.3,225.6 215.9,137.1 220.8,141.2 	"/>
	<path fill="#1F87E7" d="M141.3,233.8L141.3,233.8c-1.4,0-2.6-0.9-3-2.1L106,140.2c-0.4-1-0.2-2.1,0.4-3l32.3-43.8
		c1.2-1.6,4-1.6,5.2,0l32.3,43.8c0.6,0.9,0.8,2,0.4,3l-32.3,91.5C143.9,233,142.7,233.8,141.3,233.8z M112.7,139.7l28.7,81.3
		l28.7-81.3l-28.7-39L112.7,139.7z"/>
	
		<rect x="82.9" y="114" transform="matrix(-0.1759 -0.9844 0.9844 -0.1759 8.2764 241.3475)" fill="#1F87E7" width="44.5" height="6.4"/>
	
		<rect x="174.3" y="94.9" transform="matrix(-0.9844 -0.176 0.176 -0.9844 331.6324 263.8302)" fill="#1F87E7" width="6.4" height="44.5"/>
</g>
<polygon fill="none" stroke="#1F87E7" stroke-width="7" stroke-miterlimit="10" points="14.5,90.9 141,17.9 267.5,90.9 267.5,236.8 
	141,309.8 14.5,236.8 "/>
<polygon fill="none" stroke="#DDDDDD" stroke-miterlimit="10" points="0.5,82.2 141.5,0.6 282.5,82.2 282.5,245.5 141.5,327.1 
	0.5,245.5 "/>
</svg>
