<?xml version="1.0" encoding="utf-8"?>
<!-- Generator: Adobe Illustrator 18.0.0, SVG Export Plug-In . SVG Version: 6.00 Build 0)  -->
<!DOCTYPE svg PUBLIC "-//W3C//DTD SVG 1.1//EN" "http://www.w3.org/Graphics/SVG/1.1/DTD/svg11.dtd">
<svg version="1.1" id="Layer_1" xmlns="http://www.w3.org/2000/svg" xmlns:xlink="http://www.w3.org/1999/xlink" x="0px" y="0px"
	 viewBox="181.1 0.8 661.9 766.3" enable-background="new 181.1 0.8 661.9 766.3" xml:space="preserve">
<g>
	<path fill="#1F87E7" d="M692.2,333.5H331.1c-2.8,0-5.6-1.6-6.8-4.5c-1.2-2.6-0.7-5.9,1.2-8l86.7-102.6c1.4-1.6,3.5-2.6,5.9-2.6h188
		c2.1,0,4.2,0.9,5.9,2.6l86.5,102.6c1.9,2.3,2.3,5.4,1.2,8C697.8,331.9,695,333.5,692.2,333.5z M347.2,318.5h328.8l-73.8-87.7H421.3
		L347.2,318.5z"/>
	<polygon fill="#1F87E7" points="511.5,552.2 325.2,330.9 336.7,321.3 511.5,528.7 686.4,321.3 697.8,330.9 	"/>
	<path fill="#1F87E7" d="M511.5,547.9L511.5,547.9c-3.3,0-6.1-2.1-7-4.9l-75.7-214.4c-0.9-2.3-0.5-4.9,0.9-7l75.7-102.7
		c2.8-3.7,9.4-3.7,12.2,0l75.7,102.7c1.4,2.1,1.9,4.7,0.9,7L518.6,543C517.6,546.1,514.8,547.9,511.5,547.9z M444.5,327.4
		l67.3,190.5L579,327.4L511.8,236L444.5,327.4z"/>
	
		<rect x="374.7" y="267.2" transform="matrix(0.1759 0.9844 -0.9844 0.1759 622.1772 -193.761)" fill="#1F87E7" width="104.3" height="15"/>
	
		<rect x="588.9" y="222.7" transform="matrix(0.9844 0.176 -0.176 0.9844 57.6793 -100.6783)" fill="#1F87E7" width="15" height="104.3"/>
</g>
<polygon fill="none" stroke="#1F87E7" stroke-width="14" stroke-miterlimit="10" points="214.4,213 510.8,42 807.3,213 807.3,555 
	510.8,726 214.4,555 "/>
<polygon fill="none" stroke="#666666" stroke-miterlimit="10" points="181.6,192.6 512,1.4 842.4,192.6 842.4,575.4 512,766.6 
	181.6,575.4 "/>
</svg>
