<?xml version="1.0" encoding="utf-8"?>
<!-- Generator: Adobe Illustrator 18.0.0, SVG Export Plug-In . SVG Version: 6.00 Build 0)  -->
<!DOCTYPE svg PUBLIC "-//W3C//DTD SVG 1.1//EN" "http://www.w3.org/Graphics/SVG/1.1/DTD/svg11.dtd">
<svg version="1.1" id="Layer_1" xmlns="http://www.w3.org/2000/svg" xmlns:xlink="http://www.w3.org/1999/xlink" x="0px" y="0px"
	 viewBox="361.4 0.8 663.3 768.1" enable-background="new 361.4 0.8 663.3 768.1" xml:space="preserve">
<polygon fill="none" stroke="#666666" stroke-miterlimit="10" points="361.9,193 693,1.4 1024.2,193 1024.2,576.7 693,768.3 
	361.9,576.7 "/>
<polygon fill="none" stroke="#1F87E7" stroke-width="14" stroke-miterlimit="10" points="394.8,213.5 691.8,42.1 989,213.5 
	989,556.2 691.8,727.6 394.8,556.2 "/>
<path fill="#1F87E7" d="M656.9,463.6c-3.7,7.7-7.5,15.5-11.5,23.3c-3,5.9-7,10.8-14.5,10.5c-8-0.2-11.5-5.6-14.3-11.7
	c-7.3-15-7-30.8-3.3-46.5c0.7-2.8,1.2-5.4,2.1-9.8c-7.7,4.5-14.5,8.2-20.6,12.2c-0.9,0.5-0.7,3.7-0.2,5.2
	c12.9,37.1-10.8,78.7-49.1,86c-4.5,0.7-8.9,0.9-13.6,0.7c-17.3-0.7-27.3-12.4-25.4-30.1c1.2-10.8,5.6-20.2,13.1-28
	c13.1-13.4,29.2-22.8,45.6-31.7c1.6-0.9,3.3-1.9,4.7-2.8c0.2-0.2,0.5-0.7,0.9-1.6c-5.2-3.7-10.5-7.5-15.7-11.5
	c-12.2-9.1-24.7-17.8-36.4-27.5c-9.4-7.5-16.9-16.9-21.8-28.2c-4-9.1-4.2-18.3-1.4-27.8c5.9-18.7,17.6-33.6,32-46.3
	c36.4-31.7,78.2-52.6,125.7-60.8c19.9-3.5,39.9-2.3,58.9,5.2c26.1,10.3,36.7,30.6,28.7,57.3c-8.7,29.9-29.2,49.8-57.3,61.5
	c-21.1,8.9-43.5,12.9-66.4,9.6c-11-1.4-20.6-5.9-27.8-14.5c-2.1-2.6-3.3-6.3-4.9-10.1c2.1-0.2,2.8-0.5,2.8-0.2
	c12.2,12.2,27.5,14.8,43.9,12.9c30.3-3.7,57-15.2,76.8-39c6.1-7.3,10.5-16.2,13.4-25.4c4.7-14.5-1.6-25.4-15.7-31
	c-11.2-4.5-23.3-5.4-35.3-4.5c-36.7,2.8-68.6,18-98.9,37.4c-14.3,9.1-27.8,19.5-37.8,33.4c-9.6,13.4-15,28-8.2,43.9
	c2.8,6.8,7.7,13.1,12.9,18.5c7.5,7.5,16.2,13.8,24.5,20.6c4.2,3.5,8.4,6.6,12.4,10.1c10.8,9.1,10.5,9.1,22.8,2.6
	c3.7-2.1,7.5-4.2,11.2-6.3c8.4-4.7,16.4-9.4,23.3-16.9c5.2-5.9,12.4-10.3,19.5-13.6c12.2-5.4,20.2,0.2,20.4,13.6c0,2.8,0,5.6,0,8.7
	c0.9,0,1.4,0,2.1-0.2c8-2.1,11.7,1.2,9.8,8.9c-2.8,12.2-6.1,24.5-8.9,36.7c-0.7,3.5-0.5,7.5-0.7,11.2c0.7,0.2,1.4,0.5,1.9,0.5
	c1.4-2.6,3-4.9,4.2-7.7c12-27.5,23.8-55.2,35.7-82.7c0.9-1.9,3-3.3,4.9-4.7c0.9-0.7,2.3-0.5,3.5-0.7c14.8-1.9,16.2-0.2,12.4,13.8
	c-3.5,12.9-1.9,25.4,5.4,35.3c0.7-0.9,1.6-1.6,2.3-2.6c9.4-16.6,20.2-32.7,24.7-51.7c0.5-2.3,4-4.7,6.6-6.1c2.3-1.2,5.2-0.9,8-0.9
	c9.6-0.2,11,1.6,8,10.3c-5.6,15.7-2.6,30.3,6.3,43.9c8.9-2.3,17.3-5.2,26.3-6.6c16.9-2.3,33.4-0.2,47.7,10.3
	c12,8.7,18.3,20.2,17.1,35.5c-0.9,10.1-10.8,20.4-21.6,20.4c2.1-1.9,3.3-2.8,4.5-4c11.7-8.9,13.4-20.9,4.7-32.9
	c-5.2-6.8-12-11.2-19.9-13.8c-18-5.6-36-5.9-53.8,1.2c0.2,1.4,0.5,2.1,0.5,2.8c5.9,22-9.4,43.2-32.7,45.1c-7.5,0.7-11.5-4-10.5-12.2
	c1.6-11.7,8-21.3,16.4-28.9c5.6-4.9,5.9-8.7,2.6-15c-3.5-6.8-5.2-14.5-7.7-22.5c-0.9,1.2-1.6,2.1-2.1,2.8
	c-6.6,11-13.1,21.8-19.2,33.1c-1.2,2.1-1.9,5.4-1.2,7.7c8.9,27.5-12.2,52.1-41.1,47.9c-6.6-0.9-8.7-5.9-4.5-11.7
	c5.9-8,12-15.7,18.7-23.1c6.6-7,8.9-13.4,3.3-22.5c-4-6.3-5.2-14.5-7.7-22.8c-1.4,2.8-2.1,4.9-3,6.8c-10.5,21.6-20.9,43.5-31.7,64.8
	c-2.1,4.2-5.6,8.2-9.4,11.2c-5.9,5.2-12.7,3-15-4.5c-1.2-4-1.4-8.4-1.6-12.7c-0.2-2.8,0-5.6,0-8.4
	C657.6,463.6,657.1,463.6,656.9,463.6z M580.5,449.1c-11.7,4.7-35.3,21.1-41.6,30.8c-4,6.1-7.3,13.4-8.4,20.6
	c-1.6,8.7,3.7,12.9,12.7,11.7C570,508.3,589.9,475.1,580.5,449.1z M629.6,454.7c0.2,4,0.2,8,1.2,11.5c0.7,2.8,2.8,5.2,4.2,7.5
	c1.9-1.9,4.7-3.5,5.9-5.9c5.2-11.7,10.1-23.3,14.5-35.3c2.8-7.5,4.9-15.2,7-23.1c0.5-2.1-0.5-4.7-0.7-7c-2.6,0.5-5.6,0-7.5,1.2
	c-3.7,2.8-7.3,6.1-10.1,9.8C635.7,426.3,630.3,439.7,629.6,454.7z M789.6,433.9c-9.1,5.6-16.6,19.5-15,27.3
	C787,458.2,793.4,447,789.6,433.9z M716.3,474.6c11.2-1.9,21.1-13.8,19.5-22.8C729.4,459.2,723.3,466.4,716.3,474.6z"/>
<path fill="#FFFFFF" d="M580.5,449.1c9.4,26.1-10.5,59.4-37.6,63.1c-8.7,1.2-14.3-3-12.7-11.7c1.4-7.3,4.5-14.5,8.4-20.6
	C545.1,470.2,568.6,453.8,580.5,449.1z"/>
<path fill="#FFFFFF" d="M629.6,454.7c0.7-15,6.1-28.7,14.5-40.6c2.6-3.7,6.3-7,10.1-9.8c1.9-1.4,4.9-0.9,7.5-1.2
	c0.2,2.3,1.2,4.9,0.7,7c-2.1,7.7-4,15.5-7,23.1c-4.5,12-9.4,23.8-14.5,35.3c-0.9,2.3-3.7,4-5.9,5.9c-1.4-2.6-3.5-4.9-4.2-7.5
	C629.9,462.7,629.9,458.7,629.6,454.7z"/>
<path fill="#FFFFFF" d="M716.3,474.6c7-8.2,13.1-15.2,19.5-22.8C737.4,460.8,727.6,472.5,716.3,474.6z"/>
</svg>
