<?xml version="1.0" encoding="utf-8"?>
<!-- Generator: Adobe Illustrator 18.0.0, SVG Export Plug-In . SVG Version: 6.00 Build 0)  -->
<!DOCTYPE svg PUBLIC "-//W3C//DTD SVG 1.1//EN" "http://www.w3.org/Graphics/SVG/1.1/DTD/svg11.dtd">
<svg version="1.1" id="Layer_1" xmlns="http://www.w3.org/2000/svg" xmlns:xlink="http://www.w3.org/1999/xlink" x="0px" y="0px"
	 viewBox="0 0 283 327.7" enable-background="new 0 0 283 327.7" xml:space="preserve">
<polygon fill="none" stroke="#1F87E7" stroke-width="7" stroke-miterlimit="10" points="14.5,90.9 141,17.9 267.5,90.9 267.5,236.8 
	141,309.8 14.5,236.8 "/>
<polygon fill="none" stroke="#DDDDDD" stroke-miterlimit="10" points="0.5,82.2 141.5,0.6 282.5,82.2 282.5,245.5 141.5,327.1 
	0.5,245.5 "/>
<path fill="#1F87E7" d="M126.1,197.4c-1.6,3.3-3.2,6.6-4.9,9.9c-1.3,2.5-3,4.6-6.2,4.5c-3.4-0.1-4.9-2.4-6.1-5
	c-3.1-6.4-3-13.1-1.4-19.8c0.3-1.2,0.5-2.3,0.9-4.2c-3.3,1.9-6.2,3.5-8.8,5.2c-0.4,0.2-0.3,1.6-0.1,2.2c5.5,15.8-4.6,33.5-20.9,36.6
	c-1.9,0.3-3.8,0.4-5.8,0.3c-7.4-0.3-11.6-5.3-10.8-12.8c0.5-4.6,2.4-8.6,5.6-11.9c5.6-5.7,12.4-9.7,19.4-13.5c0.7-0.4,1.4-0.8,2-1.2
	c0.1-0.1,0.2-0.3,0.4-0.7c-2.2-1.6-4.5-3.2-6.7-4.9c-5.2-3.9-10.5-7.6-15.5-11.7c-4-3.2-7.2-7.2-9.3-12c-1.7-3.9-1.8-7.8-0.6-11.8
	c2.5-8,7.5-14.3,13.6-19.7c15.5-13.5,33.3-22.4,53.5-25.9c8.5-1.5,17-1,25.1,2.2c11.1,4.4,15.6,13,12.2,24.4
	c-3.7,12.7-12.4,21.2-24.4,26.2c-9,3.8-18.5,5.5-28.3,4.1c-4.7-0.6-8.8-2.5-11.8-6.2c-0.9-1.1-1.4-2.7-2.1-4.3
	c0.9-0.1,1.2-0.2,1.2-0.1c5.2,5.2,11.7,6.3,18.7,5.5c12.9-1.6,24.3-6.5,32.7-16.6c2.6-3.1,4.5-6.9,5.7-10.8c2-6.2-0.7-10.8-6.7-13.2
	c-4.8-1.9-9.9-2.3-15-1.9c-15.6,1.2-29.2,7.7-42.1,15.9c-6.1,3.9-11.8,8.3-16.1,14.2c-4.1,5.7-6.4,11.9-3.5,18.7
	c1.2,2.9,3.3,5.6,5.5,7.9c3.2,3.2,6.9,5.9,10.4,8.8c1.8,1.5,3.6,2.8,5.3,4.3c4.6,3.9,4.5,3.9,9.7,1.1c1.6-0.9,3.2-1.8,4.8-2.7
	c3.6-2,7-4,9.9-7.2c2.2-2.5,5.3-4.4,8.3-5.8c5.2-2.3,8.6,0.1,8.7,5.8c0,1.2,0,2.4,0,3.7c0.4,0,0.6,0,0.9-0.1c3.4-0.9,5,0.5,4.2,3.8
	c-1.2,5.2-2.6,10.4-3.8,15.6c-0.3,1.5-0.2,3.2-0.3,4.8c0.3,0.1,0.6,0.2,0.8,0.2c0.6-1.1,1.3-2.1,1.8-3.3
	c5.1-11.7,10.1-23.5,15.2-35.2c0.4-0.8,1.3-1.4,2.1-2c0.4-0.3,1-0.2,1.5-0.3c6.3-0.8,6.9-0.1,5.3,5.9c-1.5,5.5-0.8,10.8,2.3,15
	c0.3-0.4,0.7-0.7,1-1.1c4-7.1,8.6-13.9,10.5-22c0.2-1,1.7-2,2.8-2.6c1-0.5,2.2-0.4,3.4-0.4c4.1-0.1,4.7,0.7,3.4,4.4
	c-2.4,6.7-1.1,12.9,2.7,18.7c3.8-1,7.4-2.2,11.2-2.8c7.2-1,14.2-0.1,20.3,4.4c5.1,3.7,7.8,8.6,7.3,15.1c-0.4,4.3-4.6,8.7-9.2,8.7
	c0.9-0.8,1.4-1.2,1.9-1.7c5-3.8,5.7-8.9,2-14c-2.2-2.9-5.1-4.8-8.5-5.9c-7.7-2.4-15.3-2.5-22.9,0.5c0.1,0.6,0.2,0.9,0.2,1.2
	c2.5,9.4-4,18.4-13.9,19.2c-3.2,0.3-4.9-1.7-4.5-5.2c0.7-5,3.4-9.1,7-12.3c2.4-2.1,2.5-3.7,1.1-6.4c-1.5-2.9-2.2-6.2-3.3-9.6
	c-0.4,0.5-0.7,0.9-0.9,1.2c-2.8,4.7-5.6,9.3-8.2,14.1c-0.5,0.9-0.8,2.3-0.5,3.3c3.8,11.7-5.2,22.2-17.5,20.4c-2.8-0.4-3.7-2.5-1.9-5
	c2.5-3.4,5.1-6.7,8-9.8c2.8-3,3.8-5.7,1.4-9.6c-1.7-2.7-2.2-6.2-3.3-9.7c-0.6,1.2-0.9,2.1-1.3,2.9c-4.5,9.2-8.9,18.5-13.5,27.6
	c-0.9,1.8-2.4,3.5-4,4.8c-2.5,2.2-5.4,1.3-6.4-1.9c-0.5-1.7-0.6-3.6-0.7-5.4c-0.1-1.2,0-2.4,0-3.6
	C126.4,197.4,126.2,197.4,126.1,197.4z M93.6,191.2c-5,2-15,9-17.7,13.1c-1.7,2.6-3.1,5.7-3.6,8.8c-0.7,3.7,1.6,5.5,5.4,5
	C89.1,216.4,97.6,202.3,93.6,191.2z M114.5,193.6c0.1,1.7,0.1,3.4,0.5,4.9c0.3,1.2,1.2,2.2,1.8,3.2c0.8-0.8,2-1.5,2.5-2.5
	c2.2-5,4.3-9.9,6.2-15c1.2-3.2,2.1-6.5,3-9.8c0.2-0.9-0.2-2-0.3-3c-1.1,0.2-2.4,0-3.2,0.5c-1.6,1.2-3.1,2.6-4.3,4.2
	C117.1,181.5,114.8,187.2,114.5,193.6z M182.6,184.7c-3.9,2.4-7.1,8.3-6.4,11.6C181.5,195.1,184.2,190.3,182.6,184.7z M151.4,202.1
	c4.8-0.8,9-5.9,8.3-9.7C157,195.5,154.4,198.6,151.4,202.1z"/>
<path fill="#FFFFFF" d="M93.6,191.2c4,11.1-4.5,25.3-16,26.9c-3.7,0.5-6.1-1.3-5.4-5c0.6-3.1,1.9-6.2,3.6-8.8
	C78.5,200.2,88.5,193.2,93.6,191.2z"/>
<path fill="#FFFFFF" d="M114.5,193.6c0.3-6.4,2.6-12.2,6.2-17.3c1.1-1.6,2.7-3,4.3-4.2c0.8-0.6,2.1-0.4,3.2-0.5c0.1,1,0.5,2.1,0.3,3
	c-0.9,3.3-1.7,6.6-3,9.8c-1.9,5.1-4,10.1-6.2,15c-0.4,1-1.6,1.7-2.5,2.5c-0.6-1.1-1.5-2.1-1.8-3.2
	C114.6,197,114.6,195.3,114.5,193.6z"/>
<path fill="#FFFFFF" d="M151.4,202.1c3-3.5,5.6-6.5,8.3-9.7C160.4,196.2,156.2,201.2,151.4,202.1z"/>
</svg>
